<svg width="512" height="512" viewBox="0 0 512 512" fill="none" xmlns="http://www.w3.org/2000/svg">
<g clip-path="url(#clip0_801_332)">
<path d="M97.8545 159.211L97.8554 159.212L147.695 208.635L97.8554 258.059L97.8545 258.06C95.994 259.906 94.5165 262.099 93.5079 264.515C92.4993 266.931 91.9797 269.522 91.9797 272.139C91.9797 274.756 92.4993 277.347 93.5079 279.763C94.5165 282.18 95.994 284.373 97.8545 286.219C101.611 289.947 106.7 292.035 112 292.035C114.625 292.035 117.225 291.522 119.651 290.525C122.078 289.528 124.285 288.065 126.145 286.219L190.142 222.719C190.142 222.718 190.143 222.718 190.143 222.718C192.006 220.873 193.486 218.68 194.497 216.264C195.508 213.846 196.029 211.254 196.029 208.635C196.029 206.017 195.508 203.425 194.497 201.007C193.486 198.591 192.006 196.398 190.143 194.553C190.143 194.553 190.142 194.553 190.142 194.552L126.145 131.052C124.285 129.206 122.078 127.743 119.651 126.746C117.225 125.749 114.625 125.236 112 125.236C109.375 125.236 106.775 125.749 104.349 126.746C101.922 127.743 99.715 129.206 97.8545 131.052C95.994 132.898 94.5165 135.091 93.5079 137.508C92.4993 139.924 91.9797 142.514 91.9797 145.132C91.9797 147.749 92.4993 150.34 93.5079 152.756C94.5165 155.172 95.994 157.365 97.8545 159.211ZM193.869 273.95C190.115 277.675 188 282.734 188 288.015C188 293.297 190.115 298.356 193.869 302.081C197.622 305.805 202.706 307.891 208 307.891H304C309.294 307.891 314.378 305.805 318.131 302.081C321.885 298.356 324 293.297 324 288.015C324 282.734 321.885 277.675 318.131 273.95C314.378 270.226 309.294 268.139 304 268.139H208C202.706 268.139 197.622 270.226 193.869 273.95Z" fill="black" stroke="black" stroke-width="8"/>
<path d="M64 30C45.9753 30 28.6826 37.1045 15.9278 49.7604C3.17189 62.4174 -4 79.5906 -4 97.5039V415.023C-4 432.936 3.17189 450.11 15.9278 462.767C28.6826 475.423 45.9753 482.527 64 482.527H448C466.025 482.527 483.317 475.423 496.072 462.767C508.828 450.11 516 432.936 516 415.023V97.5039C516 79.5906 508.828 62.4174 496.072 49.7604C483.317 37.1045 466.025 30 448 30H64ZM448 69.7519C455.436 69.7519 462.561 72.6833 467.81 77.8913C473.058 83.0982 476 90.1537 476 97.5039V415.023C476 422.373 473.058 429.429 467.81 434.636C462.561 439.844 455.436 442.775 448 442.775H64C56.5639 442.775 49.4387 439.844 44.19 434.636C38.9424 429.429 36 422.373 36 415.023V97.5039C36 90.1537 38.9424 83.0982 44.19 77.8913C49.4386 72.6833 56.5639 69.7519 64 69.7519H448Z" fill="black" stroke="black" stroke-width="8"/>
</g>
<defs>
<clipPath id="clip0_801_332">
<rect width="512" height="512" fill="white"/>
</clipPath>
</defs>
</svg>
