<svg width="512" height="512" viewBox="0 0 512 512" fill="none" xmlns="http://www.w3.org/2000/svg">
<path d="M330.009 270.45C305.103 264.16 406.993 143.904 226.106 0C226.106 0 249.755 75.4743 130.254 243.782C10.5015 411.838 183.338 511.967 183.338 511.967C183.338 511.967 102.329 468.695 196.671 314.728C213.527 286.802 235.666 261.644 263.089 204.535C263.089 204.535 287.241 239.002 274.662 313.218C255.793 425.675 356.928 393.473 358.438 394.982C393.911 436.493 329.255 509.703 325.229 511.967C321.204 514.231 509.89 398.756 375.797 224.662C366.74 233.719 354.916 276.991 330.009 270.45V270.45Z" fill="black"/>
</svg>
