<svg width="512" height="512" viewBox="0 0 512 512" fill="none" xmlns="http://www.w3.org/2000/svg">
<path d="M115.2 141.2H160C165.547 141.2 170.138 139.382 173.773 135.747C177.391 132.129 179.2 127.547 179.2 122C179.2 116.453 177.391 111.871 173.773 108.253C170.138 104.618 165.547 102.8 160 102.8H102.4C95.1467 102.8 89.0624 105.249 84.1472 110.147C79.2491 115.062 76.8 121.147 76.8 128.4V186C76.8 191.547 78.6176 196.129 82.2528 199.747C85.8709 203.382 90.4533 205.2 96 205.2C101.547 205.2 106.129 203.382 109.747 199.747C113.382 196.129 115.2 191.547 115.2 186V141.2ZM396.8 320.4H352C346.453 320.4 341.871 322.209 338.253 325.827C334.618 329.462 332.8 334.053 332.8 339.6C332.8 345.147 334.618 349.729 338.253 353.347C341.871 356.982 346.453 358.8 352 358.8H409.6C416.853 358.8 422.929 356.342 427.827 351.427C432.742 346.529 435.2 340.453 435.2 333.2V275.6C435.2 270.053 433.391 265.462 429.773 261.827C426.138 258.209 421.547 256.4 416 256.4C410.453 256.4 405.862 258.209 402.227 261.827C398.609 265.462 396.8 270.053 396.8 275.6V320.4ZM179.2 486.8C171.947 486.8 165.871 484.342 160.973 479.427C156.058 474.529 153.6 468.453 153.6 461.2V435.6H51.2C37.12 435.6 25.0709 430.591 15.0528 420.573C5.0176 410.538 0 398.48 0 384.4V77.2C0 63.12 5.0176 51.0624 15.0528 41.0272C25.0709 31.0091 37.12 26 51.2 26H460.8C474.88 26 486.938 31.0091 496.973 41.0272C506.991 51.0624 512 63.12 512 77.2V384.4C512 398.48 506.991 410.538 496.973 420.573C486.938 430.591 474.88 435.6 460.8 435.6H358.4V461.2C358.4 468.453 355.951 474.529 351.053 479.427C346.138 484.342 340.053 486.8 332.8 486.8H179.2ZM51.2 384.4H460.8V77.2H51.2V384.4ZM51.2 384.4V77.2V384.4Z" fill="black"/>
</svg>
