<svg width="512" height="512" viewBox="0 0 512 512" fill="none" xmlns="http://www.w3.org/2000/svg">
<path d="M341.333 369.403L227.556 483.181H455.111C486.4 483.181 512 457.581 512 426.292C512 395.003 486.4 369.403 455.111 369.403H341.333ZM257.707 118.807L8.24889 368.265C3.12889 373.385 0 380.781 0 388.176V454.736C0 470.381 12.8 483.181 28.4444 483.181H95.0044C102.684 483.181 109.796 480.052 115.2 474.932L364.658 225.474L257.707 118.807ZM446.862 142.985C449.499 140.354 451.591 137.228 453.018 133.787C454.446 130.346 455.181 126.657 455.181 122.932C455.181 119.206 454.446 115.518 453.018 112.077C451.591 108.636 449.499 105.51 446.862 102.878L380.302 36.3184C377.671 33.6815 374.545 31.5895 371.104 30.1621C367.663 28.7347 363.974 28 360.249 28C356.524 28 352.835 28.7347 349.394 30.1621C345.953 31.5895 342.827 33.6815 340.196 36.3184L288.142 88.3717L394.809 195.038L446.862 142.985Z" fill="black"/>
</svg>
