<svg width="512" height="512" viewBox="0 0 512 512" fill="none" xmlns="http://www.w3.org/2000/svg">
<path d="M256 384.485C263.331 384.485 269.481 382 274.449 377.029C279.4 372.075 281.875 365.93 281.875 358.594V255.029C281.875 247.693 279.4 241.54 274.449 236.569C269.481 231.615 263.331 229.138 256 229.138C248.669 229.138 242.528 231.615 237.577 236.569C232.609 241.54 230.125 247.693 230.125 255.029V358.594C230.125 365.93 232.609 372.075 237.577 377.029C242.528 382 248.669 384.485 256 384.485ZM256 177.355C263.331 177.355 269.481 174.87 274.449 169.899C279.4 164.945 281.875 158.8 281.875 151.464C281.875 144.128 279.4 137.975 274.449 133.003C269.481 128.05 263.331 125.573 256 125.573C248.669 125.573 242.528 128.05 237.577 133.003C232.609 137.975 230.125 144.128 230.125 151.464C230.125 158.8 232.609 164.945 237.577 169.899C242.528 174.87 248.669 177.355 256 177.355ZM256 512H249.531C247.375 512 245.434 511.568 243.709 510.705C187.216 493.013 140.641 457.948 103.984 405.509C67.3281 353.088 49 295.161 49 231.727V109.391C49 98.6026 52.1309 88.8934 58.3926 80.263C64.6371 71.6325 72.7188 65.3755 82.6375 61.4918L237.888 3.23641C243.925 1.0788 249.962 0 256 0C262.038 0 268.075 1.0788 274.112 3.23641L429.363 61.4918C439.281 65.3755 447.372 71.6325 453.633 80.263C459.878 88.8934 463 98.6026 463 109.391V231.727C463 295.161 444.672 353.088 408.016 405.509C371.359 457.948 324.784 493.013 268.291 510.705C266.134 511.568 262.038 512 256 512V512ZM256 459.57C300.85 445.33 337.937 416.85 367.262 374.129C396.587 331.408 411.25 283.941 411.25 231.727V109.391L256 51.1353L100.75 109.391V231.727C100.75 283.941 115.412 331.408 144.737 374.129C174.062 416.85 211.15 445.33 256 459.57Z" fill="black"/>
</svg>
