<svg width="111" height="20" viewBox="0 0 111 20" fill="none" xmlns="http://www.w3.org/2000/svg">
<path d="M9.40052 1.62885L10.3337 0.655445C11.0028 -0.123257 12.2904 -0.285958 13.1106 0.59465L22.9943 11.2067C23.8088 12.0812 23.5964 13.4863 22.5598 14.0811L12.6761 19.7511C11.995 20.1419 11.2215 20.0469 10.6638 19.6445L0.932476 14.0617C-0.104127 13.467 -0.316527 12.0619 0.497974 11.1874C0.680094 10.9918 0.923138 10.8638 1.18741 10.8242C1.45168 10.7846 1.72157 10.8358 1.95298 10.9695L10.6638 15.9814V12.2166L4.98018 8.96734C4.17758 8.50303 4.01428 7.41349 4.64538 6.73432L4.64658 6.73306L4.64748 6.73205C4.8702 6.49337 5.16722 6.3372 5.4901 6.289C5.81298 6.24079 6.14266 6.30343 6.42538 6.46666L10.6638 8.86792V5.23396L9.31536 4.38545C8.48936 3.90845 7.74379 3.40755 8.39388 2.70965L9.40052 1.62885Z" fill="black"/>
<path d="M35.4146 16.1929C34.5308 16.1929 33.7897 15.9831 33.1912 15.5636C32.5927 15.1441 32.1424 14.5736 31.8404 13.852C31.5384 13.1249 31.3873 12.311 31.3873 11.4105C31.3873 10.4988 31.5384 9.68216 31.8404 8.96061C32.1424 8.23906 32.5843 7.6713 33.166 7.25742C33.7533 6.83792 34.4777 6.62816 35.3391 6.62816C36.1949 6.62816 36.936 6.83792 37.5624 7.25742C38.1945 7.6713 38.6839 8.23906 39.0307 8.96061C39.3775 9.67654 39.5509 10.4932 39.5509 11.4105C39.5509 12.3167 39.3803 13.1305 39.0391 13.852C38.6979 14.5736 38.2169 15.1441 37.596 15.5636C36.9751 15.9831 36.248 16.1929 35.4146 16.1929ZM31.0433 15.9412V3.85943H33.0821V9.58148H32.8304V15.9412H31.0433ZM35.1041 14.3806C35.63 14.3806 36.0634 14.2491 36.4046 13.9863C36.7458 13.7234 36.9975 13.3682 37.1597 12.9207C37.3275 12.4677 37.4114 11.9643 37.4114 11.4105C37.4114 10.8624 37.3275 10.3645 37.1597 9.91708C36.9919 9.46402 36.7318 9.10601 36.3794 8.84315C36.0271 8.57467 35.5796 8.44043 35.037 8.44043C34.5225 8.44043 34.103 8.56628 33.7785 8.81798C33.4541 9.06406 33.2136 9.41091 33.057 9.85835C32.9059 10.3003 32.8304 10.8176 32.8304 11.4105C32.8304 11.9978 32.9059 12.5152 33.057 12.9627C33.2136 13.4101 33.4569 13.7597 33.7869 14.0115C34.1225 14.2575 34.5616 14.3806 35.1041 14.3806ZM43.9592 16.2013C43.288 16.2013 42.7343 16.0894 42.298 15.8657C41.8617 15.6419 41.5149 15.3566 41.2576 15.0099C41.0004 14.6631 40.8102 14.2939 40.6871 13.9024C40.5641 13.5108 40.483 13.1417 40.4438 12.7949C40.4102 12.4425 40.3934 12.1572 40.3934 11.9391V6.87987H42.4406V11.2427C42.4406 11.5224 42.4602 11.8384 42.4993 12.1908C42.5385 12.5376 42.628 12.8732 42.7678 13.1976C42.9133 13.5164 43.1258 13.7793 43.4055 13.9863C43.6907 14.1933 44.0739 14.2967 44.5549 14.2967C44.8122 14.2967 45.0667 14.2548 45.3184 14.1709C45.5701 14.087 45.7967 13.9443 45.998 13.743C46.205 13.536 46.37 13.2536 46.493 12.8956C46.6161 12.5376 46.6776 12.0845 46.6776 11.5364L47.8774 12.0482C47.8774 12.8201 47.7264 13.5192 47.4243 14.1457C47.1279 14.7722 46.6889 15.2727 46.1071 15.6475C45.5254 16.0167 44.8095 16.2013 43.9592 16.2013ZM46.9209 15.9412V13.1305H46.6776V6.87987H48.708V15.9412H46.9209ZM50.3941 5.50389V3.64968H52.4161V5.50389H50.3941ZM50.3941 15.9412V6.87987H52.4161V15.9412H50.3941ZM54.2581 15.9412V3.60773H56.2801V15.9412H54.2581ZM61.5872 16.1929C60.7539 16.1929 60.0267 15.9831 59.4058 15.5636C58.785 15.1441 58.3039 14.5736 57.9627 13.852C57.6215 13.1305 57.4509 12.3167 57.4509 11.4105C57.4509 10.4932 57.6215 9.67654 57.9627 8.96061C58.3095 8.23906 58.799 7.6713 59.431 7.25742C60.063 6.83792 60.807 6.62816 61.6628 6.62816C62.5242 6.62816 63.2457 6.83792 63.8274 7.25742C64.4147 7.6713 64.8594 8.23906 65.1614 8.96061C65.4635 9.68216 65.6145 10.4988 65.6145 11.4105C65.6145 12.311 65.4635 13.1249 65.1614 13.852C64.8594 14.5736 64.4091 15.1441 63.8106 15.5636C63.2122 15.9831 62.471 16.1929 61.5872 16.1929ZM61.8977 14.3806C62.4403 14.3806 62.8766 14.2575 63.2065 14.0115C63.5421 13.7597 63.7855 13.4101 63.9365 12.9627C64.0931 12.5152 64.1714 11.9978 64.1714 11.4105C64.1714 10.8176 64.0931 10.3003 63.9365 9.85835C63.7855 9.41091 63.5478 9.06406 63.2233 8.81798C62.8989 8.56628 62.4794 8.44043 61.9648 8.44043C61.4222 8.44043 60.9748 8.57467 60.6224 8.84315C60.27 9.10601 60.0099 9.46402 59.8421 9.91708C59.6743 10.3645 59.5904 10.8624 59.5904 11.4105C59.5904 11.9643 59.6715 12.4677 59.8337 12.9207C60.0015 13.3682 60.256 13.7234 60.5972 13.9863C60.9384 14.2491 61.3719 14.3806 61.8977 14.3806ZM64.1714 15.9412V9.58148H63.9197V3.85943H65.9585V15.9412H64.1714ZM70.9705 16.1929C69.8518 16.1929 68.9429 15.9412 68.2437 15.4378C67.5446 14.9344 67.1194 14.2268 66.9684 13.3151L69.0324 12.9962C69.1387 13.4437 69.3736 13.7961 69.7371 14.0534C70.1008 14.3107 70.5594 14.4393 71.1131 14.4393C71.5997 14.4393 71.9745 14.3443 72.2374 14.1541C72.5059 13.9583 72.6401 13.6926 72.6401 13.357C72.6401 13.15 72.5898 12.9851 72.4891 12.862C72.394 12.7334 72.1815 12.6103 71.8514 12.4928C71.5215 12.3754 71.0153 12.2271 70.3328 12.0482C69.5722 11.8468 68.9681 11.6314 68.5206 11.4021C68.0731 11.1672 67.7515 10.8903 67.5557 10.5715C67.36 10.2527 67.2621 9.86674 67.2621 9.41368C67.2621 8.84877 67.4103 8.35652 67.7067 7.93702C68.0032 7.51751 68.4171 7.19592 68.9485 6.97216C69.4799 6.74286 70.1063 6.62816 70.8279 6.62816C71.5326 6.62816 72.1563 6.73723 72.6988 6.95538C73.2471 7.17352 73.6889 7.48395 74.0245 7.88668C74.3601 8.2894 74.5671 8.76202 74.6453 9.30461L72.5814 9.67377C72.531 9.28783 72.3548 8.98301 72.0528 8.75925C71.7564 8.53548 71.3593 8.40963 70.8614 8.38169C70.386 8.35376 70.0029 8.42641 69.712 8.59984C69.4212 8.76764 69.2757 9.00533 69.2757 9.313C69.2757 9.48642 69.3344 9.63459 69.4519 9.75767C69.5693 9.88075 69.8043 10.0038 70.1566 10.1268C70.5146 10.2499 71.046 10.4009 71.7508 10.5799C72.4723 10.7645 73.0485 10.977 73.4791 11.2175C73.9154 11.4525 74.2287 11.735 74.4188 12.0649C74.6146 12.3949 74.7125 12.7949 74.7125 13.2647C74.7125 14.1765 74.3797 14.8924 73.714 15.4126C73.0541 15.9328 72.1396 16.1929 70.9705 16.1929ZM80.0657 16.1929C79.1819 16.1929 78.4408 15.9831 77.8423 15.5636C77.2438 15.1441 76.7935 14.5736 76.4915 13.852C76.1895 13.1249 76.0384 12.311 76.0384 11.4105C76.0384 10.4988 76.1895 9.68216 76.4915 8.96061C76.7935 8.23906 77.2354 7.6713 77.8171 7.25742C78.4044 6.83792 79.1288 6.62816 79.9902 6.62816C80.846 6.62816 81.5871 6.83792 82.2136 7.25742C82.8456 7.6713 83.335 8.23906 83.682 8.96061C84.0285 9.67654 84.2022 10.4932 84.2022 11.4105C84.2022 12.3167 84.031 13.1305 83.6904 13.852C83.349 14.5736 82.868 15.1441 82.2471 15.5636C81.6262 15.9831 80.8991 16.1929 80.0657 16.1929ZM75.6944 19.9684V6.87987H77.4815V13.2396H77.7332V19.9684H75.6944ZM79.7553 14.3806C80.281 14.3806 80.7145 14.2491 81.0557 13.9863C81.3969 13.7234 81.6486 13.3682 81.8108 12.9207C81.9786 12.4677 82.0625 11.9643 82.0625 11.4105C82.0625 10.8624 81.9786 10.3645 81.8108 9.91708C81.643 9.46402 81.3829 9.10601 81.0306 8.84315C80.6782 8.57467 80.2306 8.44043 79.6881 8.44043C79.1735 8.44043 78.754 8.56628 78.4296 8.81798C78.1052 9.06406 77.8646 9.41091 77.7081 9.85835C77.5571 10.3003 77.4815 10.8176 77.4815 11.4105C77.4815 11.9978 77.5571 12.5152 77.7081 12.9627C77.8646 13.4101 78.1079 13.7597 78.438 14.0115C78.7736 14.2575 79.2127 14.3806 79.7553 14.3806ZM87.7461 16.1929C87.0917 16.1929 86.538 16.0698 86.0849 15.8237C85.6318 15.572 85.2879 15.2392 85.0529 14.8253C84.8239 14.4114 84.7089 13.9555 84.7089 13.4577C84.7089 13.0214 84.7819 12.6299 84.9271 12.2831C85.0722 11.9307 85.2962 11.6287 85.5983 11.377C85.9003 11.1196 86.2922 10.9099 86.7729 10.7477C87.1362 10.6302 87.5616 10.5239 88.0482 10.4289C88.5407 10.3338 89.0718 10.2471 89.6423 10.1688C90.2187 10.0849 90.8194 9.99536 91.4462 9.9003L90.7246 10.3114C90.7305 9.68493 90.5904 9.22347 90.3051 8.92705C90.0199 8.63063 89.5391 8.48238 88.862 8.48238C88.4534 8.48238 88.0591 8.57744 87.679 8.76764C87.299 8.95784 87.033 9.28506 86.882 9.74928L85.0362 9.17036C85.2602 8.4041 85.6847 7.78877 86.3114 7.32454C86.9432 6.86032 87.794 6.62816 88.862 6.62816C89.6675 6.62816 90.3748 6.75964 90.9847 7.0225C91.5997 7.28536 92.0561 7.71611 92.3523 8.31457C92.5142 8.6334 92.6124 8.96061 92.646 9.29622C92.6795 9.6262 92.6963 9.98697 92.6963 10.3785V15.9412H90.926V13.9779L91.2197 14.2967C90.8111 14.9511 90.3328 15.4321 89.785 15.7398C89.2421 16.0419 88.5625 16.1929 87.7461 16.1929ZM88.1489 14.582C88.6078 14.582 88.9988 14.5008 89.3235 14.3387C89.6482 14.1765 89.9049 13.9779 90.0954 13.743C90.2909 13.508 90.4226 13.2871 90.4897 13.0802C90.5963 12.8228 90.655 12.5292 90.6659 12.1992C90.6827 11.8636 90.6911 11.5923 90.6911 11.3854L91.3119 11.5699C90.702 11.665 90.1793 11.7489 89.743 11.8216C89.3067 11.8944 88.9317 11.9643 88.6187 12.0314C88.3058 12.0929 88.0289 12.1629 87.7881 12.2411C87.5532 12.325 87.3543 12.423 87.1924 12.5348C87.0305 12.6466 86.9046 12.7753 86.8148 12.9207C86.7309 13.0661 86.689 13.2368 86.689 13.4325C86.689 13.6563 86.7452 13.8548 86.8568 14.0282C86.9684 14.196 87.1312 14.3303 87.3434 14.431C87.5616 14.5316 87.8301 14.582 88.1489 14.582ZM97.9762 16.1929C97.0424 16.1929 96.2453 15.9859 95.585 15.572C94.9256 15.1525 94.4188 14.582 94.0664 13.8604C93.7199 13.1389 93.5437 12.3223 93.5378 11.4105C93.5437 10.482 93.7258 9.65976 94.0832 8.94383C94.4473 8.22228 94.9616 7.65738 95.627 7.24903C96.2932 6.83515 97.0843 6.62816 98.0014 6.62816C99.0308 6.62816 99.9009 6.88826 100.611 7.40844C101.327 7.92301 101.794 8.62778 102.012 9.52275L99.9982 10.0681C99.8422 9.58148 99.5821 9.20392 99.2179 8.93544C98.8546 8.66134 98.441 8.52433 97.9762 8.52433C97.451 8.52433 97.0172 8.65018 96.6757 8.90188C96.3351 9.14796 96.0834 9.48919 95.9206 9.92547C95.7587 10.3618 95.6773 10.8568 95.6773 11.4105C95.6773 12.2719 95.8703 12.9683 96.2562 13.4997C96.6422 14.031 97.2161 14.2967 97.9762 14.2967C98.5132 14.2967 98.936 14.1736 99.2431 13.9276C99.5569 13.6815 99.7918 13.3262 99.9479 12.862L102.012 13.3235C101.732 14.2464 101.243 14.9568 100.544 15.4545C99.8447 15.9468 98.9889 16.1929 97.9762 16.1929ZM106.728 16.1929C105.811 16.1929 105.005 15.9943 104.312 15.5972C103.619 15.2001 103.076 14.6491 102.684 13.9443C102.298 13.2396 102.105 12.4285 102.105 11.5112C102.105 10.5212 102.295 9.66261 102.676 8.93544C103.056 8.20273 103.585 7.63498 104.261 7.23225C104.938 6.82953 105.721 6.62816 106.61 6.62816C107.55 6.62816 108.347 6.84907 109.002 7.29098C109.662 7.72727 110.151 8.34537 110.47 9.14519C110.789 9.94502 110.91 10.8876 110.831 11.9727H108.825V11.2343C108.82 10.2499 108.647 9.53114 108.305 9.07807C107.965 8.62501 107.428 8.39847 106.694 8.39847C105.867 8.39847 105.251 8.6558 104.849 9.17036C104.446 9.67939 104.244 10.4261 104.244 11.4105C104.244 12.3278 104.446 13.0382 104.849 13.5416C105.251 14.045 105.839 14.2967 106.61 14.2967C107.109 14.2967 107.537 14.1876 107.894 13.9695C108.258 13.7457 108.538 13.4241 108.733 13.0046L110.73 13.6087C110.383 14.4253 109.847 15.0602 109.119 15.5133C108.398 15.9663 107.6 16.1929 106.728 16.1929ZM103.607 11.9727V10.4457H109.841V11.9727H103.607Z" fill="black"/>
</svg>
