<svg width="512" height="432" viewBox="0 0 512 432" fill="none" xmlns="http://www.w3.org/2000/svg">
<path fill-rule="evenodd" clip-rule="evenodd" d="M0 24.0001C0 17.6349 2.52841 11.5304 7.029 7.02956C11.5296 2.52868 17.6337 0.000117821 23.9985 0.000117821H160.086C199.348 0.000117821 234.225 18.8801 256.08 48.0321C267.253 33.0986 281.758 20.9801 298.44 12.6413C315.122 4.30258 333.52 -0.0260367 352.17 0.000117821H488.002C494.366 0.000117821 500.47 2.52868 504.971 7.02956C509.472 11.5304 512 17.6349 512 24.0001V360C512 366.365 509.472 372.47 504.971 376.971C500.47 381.472 494.366 384 488.002 384H343.787C334.332 384 324.97 385.862 316.235 389.481C307.5 393.099 299.563 398.402 292.878 405.088L272.975 424.96C268.475 429.455 262.376 431.979 256.016 431.979C249.656 431.979 243.557 429.455 239.057 424.96L219.154 405.088C212.469 398.402 204.532 393.099 195.797 389.481C187.062 385.862 177.7 384 168.245 384H23.9985C17.6337 384 11.5296 381.472 7.029 376.971C2.52841 372.47 0 366.365 0 360L0 24.0001ZM280.143 120C280.143 100.905 287.728 82.591 301.23 69.0884C314.731 55.5858 333.044 48.0001 352.138 48.0001H463.971V336H343.755C321.036 336 298.957 342.432 280.015 354.304L280.143 120ZM232.018 354.368L232.146 192.032L232.081 119.936C232.065 100.852 224.472 82.5546 210.972 69.0658C197.472 55.577 179.169 48.0001 160.086 48.0001H47.997V336H168.213C190.786 335.999 212.9 342.366 232.018 354.368Z" fill="black"/>
</svg>
