<svg width="384" height="504" viewBox="0 0 384 504" fill="none" xmlns="http://www.w3.org/2000/svg">
<path fill-rule="evenodd" clip-rule="evenodd" d="M4.6696e-05 80C4.6696e-05 58.7827 8.42859 38.4344 23.4315 23.4315C38.4344 8.42855 58.7827 0 80 0L360 0C366.365 0 372.47 2.52856 376.971 7.02944C381.471 11.5303 384 17.6348 384 24V424C384 430.365 381.471 436.47 376.971 440.971C372.47 445.471 366.365 448 360 448H280C273.635 448 267.53 445.471 263.03 440.971C258.529 436.47 256 430.365 256 424C256 417.635 258.529 411.53 263.03 407.029C267.53 402.529 273.635 400 280 400H336V336H80C73.6987 336.001 67.5378 337.862 62.2901 341.35C57.0423 344.839 52.9413 349.799 50.5012 355.609C48.0611 361.418 47.3906 367.819 48.5738 374.008C49.7569 380.198 52.7411 385.9 57.152 390.4C61.6077 394.949 64.0737 401.082 64.0077 407.449C63.9417 413.816 61.349 419.896 56.8 424.352C52.2511 428.808 46.1184 431.274 39.7511 431.208C33.3839 431.142 27.3037 428.549 22.848 424C8.18283 409.052 -0.022586 388.941 4.6696e-05 368V80ZM336 48V288H80C68.608 288 57.792 290.368 48 294.656V80C48 71.5131 51.3715 63.3737 57.3726 57.3726C63.3738 51.3714 71.5131 48 80 48H336ZM96 392V496C96 497.486 96.4138 498.942 97.1948 500.206C97.9759 501.47 99.0935 502.491 100.422 503.155C101.751 503.82 103.239 504.101 104.718 503.968C106.198 503.834 107.611 503.291 108.8 502.4L155.2 467.616C156.585 466.577 158.269 466.016 160 466.016C161.731 466.016 163.415 466.577 164.8 467.616L211.2 502.4C212.389 503.291 213.802 503.834 215.282 503.968C216.761 504.101 218.249 503.82 219.578 503.155C220.907 502.491 222.024 501.47 222.805 500.206C223.586 498.942 224 497.486 224 496V392C224 389.878 223.157 387.843 221.657 386.343C220.157 384.843 218.122 384 216 384H104C101.878 384 99.8435 384.843 98.3432 386.343C96.8429 387.843 96 389.878 96 392Z" fill="black"/>
</svg>
