<svg width="512" height="512" viewBox="0 0 512 512" fill="none" xmlns="http://www.w3.org/2000/svg">
<g clip-path="url(#clip0_736_367)">
<path d="M146.406 377.6C140.141 377.609 134.09 375.313 129.408 371.149L-0.12793 256L136.602 134.451C141.698 130.091 148.302 127.906 154.993 128.364C161.684 128.823 167.928 131.889 172.382 136.903C176.837 141.917 179.145 148.479 178.811 155.178C178.478 161.876 175.529 168.176 170.598 172.723L76.9281 256L163.405 332.851C167.29 336.299 170.035 340.846 171.274 345.89C172.514 350.934 172.19 356.235 170.346 361.091C168.501 365.946 165.224 370.126 160.948 373.075C156.672 376.023 151.6 377.602 146.406 377.6V377.6ZM375.398 377.549L512.128 256L382.592 140.851C377.517 136.343 370.859 134.036 364.082 134.436C357.306 134.837 350.966 137.914 346.458 142.989C341.949 148.064 339.642 154.722 340.043 161.499C340.444 168.275 343.52 174.615 348.595 179.123L435.072 256L341.402 339.251C336.323 343.76 333.243 350.101 332.84 356.88C332.437 363.658 334.743 370.32 339.251 375.398C343.76 380.477 350.101 383.557 356.88 383.96C363.658 384.363 370.32 382.057 375.398 377.549V377.549ZM255.642 413.824L306.842 106.624C307.496 103.267 307.472 99.8122 306.769 96.4646C306.066 93.117 304.7 89.9441 302.75 87.1335C300.8 84.3229 298.307 81.9314 295.418 80.1005C292.529 78.2695 289.302 77.0362 285.928 76.4733C282.554 75.9104 279.101 76.0293 275.774 76.8232C272.447 77.617 269.312 79.0695 266.556 81.0951C263.8 83.1206 261.477 85.6779 259.726 88.6161C257.974 91.5543 256.829 94.8136 256.358 98.2017L205.158 405.402C204.504 408.759 204.529 412.214 205.231 415.561C205.934 418.909 207.301 422.082 209.25 424.892C211.2 427.703 213.693 430.094 216.582 431.925C219.472 433.756 222.698 434.99 226.072 435.553C229.446 436.115 232.899 435.996 236.226 435.203C239.553 434.409 242.688 432.956 245.444 430.931C248.201 428.905 250.523 426.348 252.275 423.41C254.026 420.472 255.171 417.212 255.642 413.824V413.824Z" fill="black"/>
</g>
<defs>
<clipPath id="clip0_736_367">
<rect width="512" height="512" fill="white"/>
</clipPath>
</defs>
</svg>
