<svg width="512" height="512" viewBox="0 0 512 512" fill="none" xmlns="http://www.w3.org/2000/svg">
<path d="M208 368H144C135.163 368 128 375.163 128 384V448C128 456.837 135.163 464 144 464H208C216.837 464 224 456.837 224 448V384C224 375.163 216.837 368 208 368Z" fill="black"/>
<path d="M208 208H144C139.757 208 135.687 209.686 132.686 212.686C129.686 215.687 128 219.757 128 224V238.2H70.8C68.0386 238.2 65.8 235.961 65.8 233.2V144H80C84.2434 144 88.3131 142.314 91.3137 139.314C94.3143 136.313 96 132.243 96 128V64C96 59.7565 94.3143 55.6869 91.3137 52.6863C88.3131 49.6857 84.2434 48 80 48H16C11.7565 48 7.68687 49.6857 4.68629 52.6863C1.68571 55.6869 0 59.7565 0 64V128C0 132.243 1.68571 136.313 4.68629 139.314C7.68687 142.314 11.7565 144 16 144H30.2V413.8C30.2 424.846 39.1543 433.8 50.2 433.8H144C147.395 433.8 150.65 427.451 153.051 425.051C155.451 422.65 156.8 419.395 156.8 416C156.8 412.605 155.451 409.349 153.051 406.949C150.65 404.549 147.395 398.2 144 398.2H70.8C68.0386 398.2 65.8 395.961 65.8 393.2V278.8C65.8 276.039 68.0386 273.8 70.8 273.8H128V288C128 292.243 129.686 296.313 132.686 299.314C135.687 302.314 139.757 304 144 304H208C212.243 304 216.313 302.314 219.314 299.314C222.314 296.313 224 292.243 224 288V224C224 219.757 222.314 215.687 219.314 212.686C216.313 209.686 212.243 208 208 208Z" fill="black"/>
<path d="M496 77H138C132.477 77 128 81.4772 128 87V104C128 109.523 132.477 114 138 114H496C500.243 114 504.313 112.051 507.314 108.581C510.314 105.112 512 100.407 512 95.5C512 90.5935 510.314 85.888 507.314 82.4185C504.313 78.9491 500.243 77 496 77Z" fill="black"/>
<path d="M496 237H266C260.477 237 256 241.477 256 247V264C256 269.523 260.477 274 266 274H496C500.243 274 504.313 272.051 507.314 268.581C510.314 265.112 512 260.407 512 255.5C512 250.593 510.314 245.888 507.314 242.419C504.313 238.949 500.243 237 496 237Z" fill="black"/>
<path d="M496 397H266C260.477 397 256 401.477 256 407V424C256 429.523 260.477 434 266 434H496C500.243 434 504.313 432.051 507.314 428.581C510.314 425.112 512 420.406 512 415.5C512 410.593 510.314 405.888 507.314 402.418C504.313 398.949 500.243 397 496 397Z" fill="black"/>
</svg>
